# xmcd
#
# Track frame offsets:
#	150
#	7002
#	62836
#	72846
#	144493
#	157726
#	179982
#	243274
#	251507
#	308873
#
# Disc length: 4235 seconds
#
# Revision: 0
# Processed by: cddbd v1.5.2PL0 Copyright (c) Steve Scherf et al.
# Submitted via: audiograbber 1.83.01
#
DISCID=8810890a
DTITLE=Eckart zur Nieden - Die 3 vom Ast als freundliche Helfer
DYEAR=1900
DGENRE=
TTITLE0=Jetzt heiﬂts die Ohren spitzen
TTITLE1=Schaufel-Otto in Gefahr
TTITLE2=Denke dran, das Edelweiﬂ
TTITLE3=Luftpost
TTITLE4=Hat sich einer mal verirrt
TTITLE5=Einst vor vielen, vielen Jahren
TTITLE6=Rollentausch
TTITLE7=Denk nicht, das dirs besser ginge
TTITLE8=Kai Kibitz erste Flugstunde
TTITLE9=Jesus ruft dich
EXTD=
EXTT0=
EXTT1=
EXTT2=
EXTT3=
EXTT4=
EXTT5=
EXTT6=
EXTT7=
EXTT8=
EXTT9=
PLAYORDER=
